<svg width="1923" height="521" viewBox="0 0 1923 521" fill="none" xmlns="http://www.w3.org/2000/svg">
<mask id="mask0_731_498" style="mask-type:alpha" maskUnits="userSpaceOnUse" x="0" y="0" width="1923" height="521">
<rect x="0.859131" width="1922" height="521" fill="#238878"/>
</mask>
<g mask="url(#mask0_731_498)">
<circle cx="1163.86" r="330" fill="url(#paint0_linear_731_498)"/>
</g>
<path opacity="0.5" d="M150.503 160.748C152.995 161.707 156.209 163.556 158.921 166.17C160.023 167.23 161.094 168.419 161.839 169.746C163.857 173.339 165.26 177.191 165.796 181.342C165.964 182.65 165.952 183.939 165.5 185.215C165.415 185.457 165.534 185.796 165.624 186.067C165.94 187 166.372 187.898 166.591 188.853C166.783 189.68 166.539 190.508 165.923 191.164C165.358 191.768 164.857 191.829 164.182 191.373C163.835 191.138 163.479 190.898 163.194 190.594C159.858 187.037 155.659 185.126 150.98 184.207C148.047 183.628 145.078 183.246 142.134 182.725C139 182.169 136.08 181.114 133.411 179.288C128.883 176.189 125.448 167.943 126.954 162.523C127.176 161.724 127.432 160.921 127.788 160.176C128.274 159.15 129.111 158.648 130.276 158.61C131.323 158.575 132.37 158.405 133.411 158.239C139.002 157.338 144.307 158.435 150.503 160.748ZM132.593 161.675C132.572 162.055 132.568 162.194 132.554 162.335C132.26 165.407 133.216 168.186 134.379 170.921C134.919 172.188 135.72 173.235 136.793 174.071C138.154 175.131 139.629 176.013 141.313 176.391C143.543 176.888 145.79 177.327 148.055 177.644C152.24 178.225 156.374 178.939 160.152 180.959C160.219 180.993 160.317 180.969 160.433 180.975C159.714 178.992 158.958 177.084 158.326 175.132C157.148 171.491 154.778 168.918 151.519 167.135C147.701 165.046 143.589 163.702 139.38 162.704C137.191 162.186 134.919 162.016 132.593 161.675Z" fill="#32C0AA"/>
<defs>
<linearGradient id="paint0_linear_731_498" x1="1328.27" y1="-139.57" x2="990.859" y2="186" gradientUnits="userSpaceOnUse">
<stop stop-color="#156256"/>
<stop offset="1" stop-color="#1F7E6F" stop-opacity="0"/>
</linearGradient>
</defs>
</svg>
