<svg width="52" height="39" viewBox="0 0 52 39" fill="none" xmlns="http://www.w3.org/2000/svg">
<circle cx="32.8096" cy="19.1905" r="19.1905" fill="#EEFFF3"/>
<path d="M21.0476 0C28.4449 0 34.4416 5.92242 34.4416 13.2281C34.4416 13.4426 34.4364 13.6559 34.4263 13.8679C38.8931 15.4201 42.0952 19.624 42.0952 24.5664C42.0952 30.8284 36.9552 35.9048 30.6147 35.9048H11.4805C5.14 35.9048 0 30.8284 0 24.5664C0 19.624 3.20203 15.4201 7.66906 13.8679C7.65885 13.6559 7.65368 13.4426 7.65368 13.2281C7.65368 5.92242 13.6504 0 21.0476 0ZM21.0476 3.77945C15.7639 3.77945 11.4805 8.00975 11.4805 13.2281C11.4805 13.382 11.4842 13.5354 11.4916 13.6881L11.6271 16.499L8.93917 17.4331C5.90175 18.4885 3.82684 21.3329 3.82684 24.5664C3.82684 28.741 7.25351 32.1253 11.4805 32.1253H30.6147C34.8417 32.1253 38.2684 28.741 38.2684 24.5664C38.2684 20.3901 34.8434 17.0075 30.6147 17.0075C27.2337 17.0075 24.3649 19.1726 23.3518 22.1753L19.7205 20.9799C21.2399 16.4756 25.5442 13.2281 30.6147 13.2281C30.6147 8.00975 26.3313 3.77945 21.0476 3.77945Z" fill="#238878"/>
</svg>
