<svg width="48" height="48" viewBox="0 0 48 48" fill="none" xmlns="http://www.w3.org/2000/svg">
<circle cx="24" cy="24" r="23" stroke="#238878" stroke-width="2"/>
<path d="M34 28.1656V31.8981C34 32.4523 33.5716 32.9121 33.0189 32.9511C32.5572 32.9837 32.1805 33 31.8889 33C22.5614 33 15 25.4386 15 16.1111C15 15.8195 15.0163 15.4428 15.0489 14.9811C15.088 14.4284 15.5478 14 16.1019 14H19.8346C20.1055 14 20.3324 14.2052 20.3596 14.4748C20.384 14.7168 20.4067 14.9111 20.4277 15.0577C20.6413 16.5489 21.0774 17.9682 21.7014 19.281C21.8016 19.4917 21.7362 19.7439 21.5464 19.8795L19.2682 21.5069C20.6552 24.7467 23.2533 27.3449 26.4931 28.7319L28.1175 26.4576C28.2548 26.2655 28.5101 26.1994 28.7233 26.3006C30.036 26.9241 31.4552 27.3597 32.9461 27.5728C33.0918 27.5937 33.2849 27.6161 33.5252 27.6404C33.7948 27.6677 34 27.8946 34 28.1656Z" fill="#238878"/>
</svg>
