<svg width="1921" height="694" viewBox="0 0 1921 694" fill="none" xmlns="http://www.w3.org/2000/svg">
<g clip-path="url(#clip0_716_359)">
<rect x="0.617432" y="0.109619" width="1920" height="693" fill="#238878"/>
<mask id="mask0_716_359" style="mask-type:alpha" maskUnits="userSpaceOnUse" x="0" y="4" width="1921" height="445">
<rect width="1920" height="444" transform="matrix(-1 0 0 1 1920.62 4.10962)" fill="#238878"/>
</mask>
<g mask="url(#mask0_716_359)">
<ellipse cx="329.657" cy="330" rx="329.657" ry="330" transform="matrix(-1 0 0 1 914.931 -278.89)" fill="url(#paint0_linear_716_359)"/>
</g>
<g opacity="0.5">
<path d="M1736.27 639.549C1735.15 641.145 1734.14 642.654 1733.05 644.108C1732.29 645.107 1731.51 646.116 1730.59 646.964C1728.59 648.807 1726.02 648.408 1725.01 645.899C1724.23 643.925 1724 641.73 1723.54 639.632C1723.48 639.363 1723.47 639.084 1723.43 638.674C1723.02 638.864 1722.69 639.012 1722.36 639.17C1718.47 641.069 1714.56 642.96 1710.27 643.804C1708.9 644.073 1707.42 644.132 1706.04 643.946C1702.84 643.515 1701.06 640.945 1701.78 637.823C1702.09 636.473 1702.57 635.067 1703.35 633.937C1704.75 631.904 1706.22 629.85 1708.02 628.176C1713.83 622.767 1720.45 618.498 1727.84 615.462C1729.23 614.89 1730.73 614.563 1732.2 614.198C1733.02 613.991 1733.83 614.136 1734.49 614.766C1734.64 614.911 1734.86 615.014 1735.07 615.073C1737.16 615.662 1738.88 616.861 1740.17 618.508C1742.21 621.099 1744.26 623.711 1745.95 626.519C1748.19 630.24 1749.02 634.378 1748.44 638.719C1748.36 639.336 1748.22 639.956 1748.01 640.545C1747.23 642.84 1745.25 644.042 1742.83 643.677C1740.38 643.305 1738.35 642.185 1736.82 640.232C1736.67 640.035 1736.51 639.846 1736.27 639.549ZM1728.72 642.133C1728.8 642.151 1728.87 642.164 1728.94 642.182C1729.16 641.892 1729.41 641.624 1729.61 641.317C1731.11 638.926 1732.6 636.528 1734.09 634.133C1734.78 633.034 1735.68 632.231 1737.08 632.324C1738.52 632.417 1739.32 633.341 1739.89 634.547C1740.25 635.311 1740.57 636.111 1741.05 636.8C1741.42 637.341 1742.02 637.737 1742.52 638.195C1742.62 638.133 1742.72 638.071 1742.82 638.009C1742.82 637.358 1742.85 636.71 1742.82 636.059C1742.68 633.375 1741.69 631.022 1740.01 628.92C1737.25 625.447 1734.31 622.133 1730.95 619.2C1730.41 618.725 1730.06 618.646 1729.43 619.014C1723.89 622.229 1718.69 625.881 1714.02 630.233C1711.75 632.341 1709.68 634.622 1708.06 637.262C1707.75 637.754 1707.51 638.285 1707.15 638.977C1707.76 638.977 1708.17 639.033 1708.55 638.967C1709.55 638.795 1710.56 638.647 1711.52 638.347C1715.87 636.976 1720.14 635.48 1723.78 632.569C1725.6 631.108 1727.85 632.055 1728.33 634.333C1728.45 634.912 1728.49 635.511 1728.51 636.104C1728.55 637.262 1728.53 638.419 1728.57 639.577C1728.59 640.424 1728.67 641.279 1728.72 642.133Z" fill="#32C0AA"/>
</g>
</g>
<defs>
<linearGradient id="paint0_linear_716_359" x1="582.313" y1="467" x2="97.7143" y2="81.4958" gradientUnits="userSpaceOnUse">
<stop stop-color="#1F7E6F" stop-opacity="0"/>
<stop offset="1" stop-color="#156256"/>
</linearGradient>
<clipPath id="clip0_716_359">
<rect width="1920" height="693" fill="white" transform="translate(0.617432 0.109619)"/>
</clipPath>
</defs>
</svg>
