<svg width="1918" height="692" viewBox="0 0 1918 692" fill="none" xmlns="http://www.w3.org/2000/svg">
<g clip-path="url(#clip0_716_359)">
<rect x="-1.38257" y="-0.890381" width="1920" height="693" fill="#238878"/>
<mask id="mask0_716_359" style="mask-type:alpha" maskUnits="userSpaceOnUse" x="-2" y="3" width="1921" height="445">
<rect width="1920" height="444" transform="matrix(-1 0 0 1 1918.62 3.10962)" fill="#238878"/>
</mask>
<g mask="url(#mask0_716_359)">
<ellipse cx="329.657" cy="330" rx="329.657" ry="330" transform="matrix(-1 0 0 1 912.931 -279.89)" fill="url(#paint0_linear_716_359)"/>
</g>
<g opacity="0.5">
<path d="M1734.27 638.549C1733.15 640.145 1732.14 641.654 1731.05 643.108C1730.29 644.107 1729.51 645.116 1728.59 645.964C1726.59 647.807 1724.02 647.408 1723.01 644.899C1722.23 642.925 1722 640.73 1721.54 638.632C1721.48 638.363 1721.47 638.084 1721.43 637.674C1721.02 637.864 1720.69 638.012 1720.36 638.17C1716.47 640.069 1712.56 641.96 1708.27 642.804C1706.9 643.073 1705.42 643.132 1704.04 642.946C1700.84 642.515 1699.06 639.945 1699.78 636.823C1700.09 635.473 1700.57 634.067 1701.35 632.937C1702.75 630.904 1704.22 628.85 1706.02 627.176C1711.83 621.767 1718.45 617.498 1725.84 614.462C1727.23 613.89 1728.73 613.563 1730.2 613.198C1731.02 612.991 1731.83 613.136 1732.49 613.766C1732.64 613.911 1732.86 614.014 1733.07 614.073C1735.16 614.662 1736.88 615.861 1738.17 617.508C1740.21 620.099 1742.26 622.711 1743.95 625.519C1746.19 629.24 1747.02 633.378 1746.44 637.719C1746.36 638.336 1746.22 638.956 1746.01 639.545C1745.23 641.84 1743.25 643.042 1740.83 642.677C1738.38 642.305 1736.35 641.185 1734.82 639.232C1734.67 639.035 1734.51 638.846 1734.27 638.549ZM1726.72 641.133C1726.8 641.151 1726.87 641.164 1726.94 641.182C1727.16 640.892 1727.41 640.624 1727.61 640.317C1729.11 637.926 1730.6 635.528 1732.09 633.133C1732.78 632.034 1733.68 631.231 1735.08 631.324C1736.52 631.417 1737.32 632.341 1737.89 633.547C1738.25 634.311 1738.57 635.111 1739.05 635.8C1739.42 636.341 1740.02 636.737 1740.52 637.195C1740.62 637.133 1740.72 637.071 1740.82 637.009C1740.82 636.358 1740.85 635.71 1740.82 635.059C1740.68 632.375 1739.69 630.022 1738.01 627.92C1735.25 624.447 1732.31 621.133 1728.95 618.2C1728.41 617.725 1728.06 617.646 1727.43 618.014C1721.89 621.229 1716.69 624.881 1712.02 629.233C1709.75 631.341 1707.68 633.622 1706.06 636.262C1705.75 636.754 1705.51 637.285 1705.15 637.977C1705.76 637.977 1706.17 638.033 1706.55 637.967C1707.55 637.795 1708.56 637.647 1709.52 637.347C1713.87 635.976 1718.14 634.48 1721.78 631.569C1723.6 630.108 1725.85 631.055 1726.33 633.333C1726.45 633.912 1726.49 634.511 1726.51 635.104C1726.55 636.262 1726.53 637.419 1726.57 638.577C1726.59 639.424 1726.67 640.279 1726.72 641.133Z" fill="#32C0AA"/>
</g>
</g>
<defs>
<linearGradient id="paint0_linear_716_359" x1="582.313" y1="467" x2="97.7143" y2="81.4958" gradientUnits="userSpaceOnUse">
<stop stop-color="#1F7E6F" stop-opacity="0"/>
<stop offset="1" stop-color="#156256"/>
</linearGradient>
<clipPath id="clip0_716_359">
<rect width="1918" height="692" fill="white"/>
</clipPath>
</defs>
</svg>
