<svg width="41" height="37" viewBox="0 0 41 37" fill="none" xmlns="http://www.w3.org/2000/svg">
<circle cx="22.5" cy="18.5" r="18.5" fill="#EEFFF3"/>
<path d="M15 32C21.6275 32 27 26.6275 27 20C27 13.3726 21.6275 8 15 8C8.37258 8 3 13.3726 3 20C3 26.6275 8.37258 32 15 32ZM15 35C6.71572 35 0 28.2842 0 20C0 11.7157 6.71572 5 15 5C23.2842 5 30 11.7157 30 20C30 28.2842 23.2842 35 15 35ZM15 26C18.3137 26 21 23.3137 21 20C21 16.6863 18.3137 14 15 14C11.6863 14 9 16.6863 9 20C9 23.3137 11.6863 26 15 26ZM15 29C10.0294 29 6 24.9706 6 20C6 15.0294 10.0294 11 15 11C19.9706 11 24 15.0294 24 20C24 24.9706 19.9706 29 15 29ZM15 23C13.3431 23 12 21.6569 12 20C12 18.3431 13.3431 17 15 17C16.6569 17 18 18.3431 18 20C18 21.6569 16.6569 23 15 23Z" fill="#238878"/>
</svg>
