<svg width="94" height="33" viewBox="0 0 94 33" fill="none" xmlns="http://www.w3.org/2000/svg">
<path d="M18.8808 11.4815C15.4823 11.4815 12.8269 14.0287 12.8269 17.4387C12.8269 20.8487 15.4152 23.3741 18.8808 23.3741C22.3463 23.3741 24.9796 20.8051 24.9796 17.4169C24.9796 14.0505 22.3913 11.4815 18.8808 11.4815ZM18.9037 20.9167C16.9684 20.9167 15.5503 19.4326 15.5503 17.4396C15.5503 15.4239 16.9455 13.9407 18.8808 13.9407C20.839 13.9407 22.2563 15.4465 22.2563 17.4396C22.2563 19.4326 20.839 20.9167 18.9037 20.9167ZM25.7218 14.0732H27.4099V23.1536H30.1103V11.7028H25.7218V14.0732ZM6.03091 13.9398C7.44905 13.9398 8.57421 14.8035 9.00136 16.088H11.8597C11.3417 13.342 9.04637 11.4815 6.05383 11.4815C2.65539 11.4815 0 14.0287 0 17.4396C0 20.8504 2.58832 23.375 6.05383 23.375C8.97927 23.375 11.3196 21.5145 11.8376 18.7459H9.00136C8.5963 20.0304 7.47112 20.9167 6.053 20.9167C4.09477 20.9167 2.72247 19.4326 2.72247 17.4396C2.72334 15.4239 4.07354 13.9398 6.03091 13.9398ZM77.0311 16.3319L75.0509 16.0444C74.1059 15.9119 73.4307 15.6017 73.4307 14.8705C73.4307 14.0732 74.3088 13.6749 75.501 13.6749C76.8063 13.6749 77.6393 14.2283 77.8192 15.1363H80.4298C80.1368 12.8331 78.3364 11.4823 75.5689 11.4823C72.7105 11.4823 70.8204 12.922 70.8204 14.9594C70.8204 16.908 72.0583 18.0382 74.5558 18.3921L76.5361 18.6796C77.5043 18.8121 78.0443 19.1894 78.0443 19.8979C78.0443 20.806 77.0993 21.1824 75.794 21.1824C74.1957 21.1824 73.2957 20.5402 73.1607 19.5659H70.5052C70.7533 21.8029 72.5306 23.375 75.771 23.375C78.7195 23.375 80.6768 22.0461 80.6768 19.7646C80.6768 17.7272 79.2595 16.664 77.0311 16.3319ZM28.7601 6.98568C27.7699 6.98568 27.0271 7.69417 27.0271 8.66846C27.0271 9.64275 27.7692 10.3512 28.7601 10.3512C29.7502 10.3512 30.4933 9.64275 30.4933 8.66846C30.4933 7.69417 29.7502 6.98568 28.7601 6.98568ZM68.3899 15.6235C68.3899 13.1433 66.8598 11.4823 63.6192 11.4823C60.5587 11.4823 58.8484 13.0108 58.5105 15.3585H61.1888C61.3237 14.4505 62.0439 13.6975 63.5743 13.6975C64.9474 13.6975 65.6224 14.2953 65.6224 15.0265C65.6224 15.979 64.3842 16.2221 62.8541 16.3772C60.7838 16.5986 58.2184 17.3071 58.2184 19.965C58.2184 22.0251 59.7714 23.3532 62.247 23.3532C64.1821 23.3532 65.3973 22.5558 66.0055 21.2931C66.0956 22.4225 66.9507 23.1536 68.1437 23.1536H69.719V20.7842H68.3907V15.6235H68.3899ZM65.7344 18.5027C65.7344 20.0312 64.3842 21.1606 62.7411 21.1606C61.7282 21.1606 60.8731 20.7397 60.8731 19.8543C60.8731 18.7249 62.246 18.4147 63.5064 18.2822C64.7216 18.1715 65.3966 17.9057 65.7344 17.396V18.5027ZM51.3994 11.4815C49.8913 11.4815 48.6311 12.1019 47.7311 13.1425V6.875H45.0307V23.1536H47.6859V21.6478C48.586 22.7327 49.8693 23.375 51.3994 23.375C54.6398 23.375 57.0932 20.8504 57.0932 17.4396C57.0932 14.0287 54.5949 11.4815 51.3994 11.4815ZM50.9945 20.9167C49.0591 20.9167 47.641 19.4326 47.641 17.4396C47.641 15.4465 49.0813 13.9407 51.0164 13.9407C52.9747 13.9407 54.3469 15.4248 54.3469 17.4396C54.3469 19.4326 52.9296 20.9167 50.9945 20.9167ZM38.5716 11.4815C36.8164 11.4815 35.6683 12.19 34.9933 13.1869V11.7028H32.3148V23.1528H35.0152V16.9298C35.0152 15.1799 36.1404 13.9398 37.8057 13.9398C39.3588 13.9398 40.326 15.0248 40.326 16.5978V23.1536H43.0264V16.399C43.0274 13.5189 41.52 11.4815 38.5716 11.4815ZM93.5496 17.0631C93.5496 13.7856 91.1191 11.4823 87.8558 11.4823C84.3903 11.4823 81.8471 14.0514 81.8471 17.4396C81.8471 21.0055 84.5702 23.375 87.9009 23.375C90.7141 23.375 92.9195 21.7358 93.4817 19.4108H90.6682C90.2632 20.4295 89.2731 21.0055 87.9451 21.0055C86.2118 21.0055 84.9065 19.9424 84.6143 18.0818H93.5488V17.0631H93.5496ZM84.7723 16.1768C85.2005 14.5821 86.4155 13.8074 87.8109 13.8074C89.341 13.8074 90.5113 14.671 90.7812 16.1768H84.7723Z" fill="#2E3938"/>
</svg>
