<svg width="25" height="25" viewBox="0 0 25 25" fill="none" xmlns="http://www.w3.org/2000/svg">
<path d="M13.6364 0L13.6375 3.47956C17.7491 3.99278 21.0078 7.25185 21.5206 11.3636H25V13.6364L21.5205 13.6375C21.0073 17.7488 17.7488 21.0073 13.6375 21.5205L13.6364 25H11.3636V21.5206C7.25185 21.0078 3.99278 17.7491 3.47956 13.6375L0 13.6364V11.3636H3.47942C3.99218 7.25147 7.25147 3.99218 11.3636 3.47942V0H13.6364ZM12.5 5.68182C8.73442 5.68182 5.68182 8.73442 5.68182 12.5C5.68182 16.2656 8.73442 19.3182 12.5 19.3182C16.2656 19.3182 19.3182 16.2656 19.3182 12.5C19.3182 8.73442 16.2656 5.68182 12.5 5.68182ZM12.5 10.2273C13.7552 10.2273 14.7727 11.2448 14.7727 12.5C14.7727 13.7552 13.7552 14.7727 12.5 14.7727C11.2448 14.7727 10.2273 13.7552 10.2273 12.5C10.2273 11.2448 11.2448 10.2273 12.5 10.2273Z" fill="#238878"/>
</svg>
