<svg width="47" height="34" viewBox="0 0 47 34" fill="none" xmlns="http://www.w3.org/2000/svg">
<g opacity="0.5">
<path d="M34.6563 25.4397C33.5338 27.035 32.5228 28.5441 31.4282 29.9981C30.6752 30.9972 29.8943 32.0068 28.974 32.8544C26.9695 34.6977 24.4003 34.298 23.3963 31.7897C22.6084 29.8155 22.3853 27.6207 21.9217 25.5224C21.8624 25.2537 21.8554 24.9746 21.8101 24.5646C21.4057 24.7541 21.0745 24.9022 20.7468 25.0607C16.8529 26.9592 12.9416 28.8507 8.6502 29.6949C7.28018 29.9636 5.79859 30.0222 4.41811 29.8361C1.22138 29.4054 -0.560013 26.8351 0.158117 23.7136C0.468378 22.3629 0.956434 20.9572 1.73383 19.8271C3.13174 17.7943 4.60636 15.7408 6.40517 14.0663C12.2165 8.6569 18.8295 4.38798 26.22 1.35253C27.6109 0.780582 29.1134 0.453263 30.5811 0.088044C31.4073 -0.118683 32.216 0.0260263 32.8749 0.656545C33.0248 0.801254 33.2444 0.904618 33.4501 0.963191C35.5382 1.55236 37.2639 2.75138 38.5572 4.39831C40.5896 6.9893 42.6429 9.60095 44.3336 12.409C46.5752 16.1301 47.3979 20.2681 46.8227 24.6094C46.7425 25.2261 46.5996 25.8463 46.3974 26.4355C45.6095 28.7301 43.6294 29.9326 41.2101 29.5674C38.7629 29.1953 36.7305 28.0755 35.2001 26.1219C35.0502 25.9255 34.8933 25.736 34.6563 25.4397ZM27.1055 28.0238C27.1787 28.041 27.2519 28.0548 27.3216 28.0721C27.5447 27.7826 27.7957 27.5139 27.9909 27.2072C29.4899 24.8161 30.9785 22.4181 32.474 20.0235C33.1608 18.9244 34.0636 18.1216 35.465 18.2146C36.8978 18.3076 37.7066 19.231 38.2748 20.4369C38.6339 21.2018 38.9511 22.0012 39.4287 22.6903C39.8052 23.2312 40.4013 23.6274 40.8998 24.0857C41.0009 24.0236 41.102 23.9616 41.2031 23.8996C41.2031 23.2484 41.231 22.6007 41.1996 21.9495C41.0637 19.2655 40.0702 16.9122 38.3934 14.8105C35.6289 11.3375 32.6971 8.02293 29.3365 5.09085C28.7927 4.61538 28.4441 4.53613 27.8096 4.90479C22.2772 8.11941 17.076 11.7716 12.3977 16.1232C10.1318 18.2318 8.06453 20.5127 6.44002 23.1519C6.13674 23.6446 5.8962 24.1752 5.53365 24.8678C6.14023 24.8678 6.54809 24.9229 6.93504 24.8574C7.92857 24.6852 8.94302 24.537 9.90169 24.2373C14.2488 22.866 18.5262 21.3706 22.1587 18.4592C23.9819 16.9984 26.2339 17.9459 26.7115 20.2233C26.8335 20.8021 26.8684 21.4016 26.8893 21.9943C26.9277 23.1519 26.9137 24.3096 26.9521 25.4673C26.973 26.3149 27.0497 27.1693 27.1055 28.0238Z" fill="#32C0AA"/>
</g>
</svg>
