<svg width="48" height="46" viewBox="0 0 48 46" fill="none" xmlns="http://www.w3.org/2000/svg">
<path opacity="0.5" d="M35.7084 14.8342C39.3357 15.9547 42.1102 18.1259 44.4747 20.8702C45.6752 22.2625 46.5061 23.8422 46.6232 25.7195C46.7953 28.4418 45.6716 30.6386 43.6182 32.2734C39.0539 35.9031 34.1236 37.0824 28.6186 34.0589C28.4282 34.3601 28.2306 34.654 28.0512 34.9553C25.3939 39.3417 21.9277 42.8575 17.1218 44.8156C15.6943 45.396 14.1351 45.8369 12.6087 45.9581C6.18871 46.4724 1.11564 42.2036 0.240846 35.668C-0.461918 30.4329 0.383594 25.4183 2.64195 20.6681C6.35708 12.8431 12.477 7.5896 20.3757 4.35672C26.869 1.7006 33.677 0.392756 40.668 0.0217082C42.6519 -0.0848302 44.5698 0.190695 46.3926 1.07239C48.1386 1.91735 48.5485 3.46766 47.1942 4.85266C46.2462 5.81885 45.0933 6.57933 44.0574 7.46471C41.3818 9.75712 38.7208 12.0679 36.0562 14.375C35.9537 14.4595 35.8951 14.5807 35.7084 14.8342ZM42.5677 4.48529C42.2273 4.32364 42.1431 4.2612 42.0553 4.24651C41.7917 4.21344 41.5282 4.18405 41.261 4.17671C31.4333 3.87546 22.6268 6.62709 15.0391 13.0157C11.6937 15.8298 9.15716 19.2721 7.45515 23.2948C5.92152 26.9245 5.3615 30.7305 5.92518 34.654C6.56938 39.147 10.3394 41.5607 14.6036 40.0728C16.1409 39.5364 17.6159 38.6547 18.93 37.6738C21.0309 36.1088 22.5975 34.0148 23.8639 31.7114C24.5155 30.5248 24.962 29.4006 24.5008 27.9348C23.9701 26.2412 25.0206 24.599 26.5908 24.1545C28.2123 23.6916 29.8557 24.588 30.456 26.3036C30.6171 26.7702 30.628 27.2882 30.7708 27.7621C30.8989 28.1956 31.0197 28.6916 31.3052 29.0148C32.8608 30.7782 34.7824 31.6857 37.1689 31.2044C39.4931 30.7378 40.6607 29.0589 41.3854 26.9686C41.8027 25.7673 41.5758 24.6725 40.7888 23.6806C39.3687 21.8915 37.5934 20.6644 35.3058 20.3338C33.6294 20.095 31.9384 19.9628 30.2547 19.7497C28.2855 19.4999 27.5205 18.1847 28.1757 16.3368C28.8748 14.3566 30.1705 12.8173 31.6529 11.4029C34.4164 8.76887 37.674 6.93201 41.1658 5.46251C41.6343 5.27515 42.0187 4.87838 42.5677 4.48529Z" fill="#32C0AA"/>
</svg>
