<svg width="41" height="35" viewBox="0 0 41 35" fill="none" xmlns="http://www.w3.org/2000/svg">
<path opacity="0.5" d="M24.6439 3.74776C27.1361 4.70673 30.3495 6.55595 33.0622 9.16975C34.1641 10.2302 35.2353 11.4194 35.9802 12.7463C37.9985 16.3392 39.4009 20.1907 39.9372 24.3417C40.1048 25.6498 40.0925 26.9386 39.6413 28.2146C39.5555 28.4569 39.6749 28.7957 39.7653 29.067C40.0815 29.9997 40.5128 30.8983 40.7324 31.8525C40.9238 32.6805 40.6797 33.5082 40.0641 34.1635C39.4987 34.768 38.9978 34.8295 38.323 34.3735C37.9762 34.1376 37.6198 33.898 37.3355 33.5936C33.9989 30.0374 29.8004 28.1264 25.1205 27.2069C22.1884 26.6283 19.2188 26.2461 16.2754 25.7251C13.1415 25.1694 10.2207 24.1144 7.55236 22.2883C3.02388 19.189 -0.411074 10.9432 1.0945 5.52346C1.31667 4.72385 1.5733 3.92073 1.92869 3.17565C2.4152 2.14961 3.25235 1.64778 4.4165 1.61035C5.4639 1.57541 6.51131 1.40548 7.55203 1.23859C13.1426 0.337752 18.448 1.43545 24.6439 3.74776ZM6.73354 4.67521C6.71283 5.05526 6.70853 5.1942 6.69514 5.33523C6.40131 8.40744 7.35736 11.1858 8.52048 13.9209C9.05983 15.1876 9.86066 16.2353 10.934 17.071C12.2952 18.1309 13.7698 19.0126 15.4536 19.3907C17.6838 19.888 19.9311 20.3273 22.1957 20.6439C26.381 21.2252 30.5152 21.9385 34.2934 23.9592C34.3601 23.9935 34.4576 23.9695 34.5739 23.9752C33.8551 21.992 33.0987 20.0841 32.467 18.1319C31.2888 14.4911 28.9189 11.9176 25.6602 10.1351C21.8424 8.04572 17.7296 6.7023 13.5213 5.70428C11.3321 5.18634 9.0604 5.016 6.73354 4.67521Z" fill="#32C0AA"/>
</svg>
