<?xml version="1.0" encoding="utf-8"?>
<svg viewBox="33.217 48.892 415.061 376.831" xmlns="http://www.w3.org/2000/svg">
  <g transform="matrix(1, 0, 0, 1, -157.019089, -217.112885)">
    <g transform="matrix(2.54863, 0, 0, 2.8484, -1017.220459, -795.47522)" style=""/>
  </g>
  <g transform="matrix(1.532233, 0, 0, 1.551694, -221.981735, -300.018066)" style="">
    <g>
      <defs>
        <path id="SVGID_1_" d="M430.4,231.57c-8.2,12.69-21.64,18.42-35.51,23.65c-12.39,4.67-21.77,6.44-33.61,12.15 c-17.39,8.39-26.93,24.41-26.85,42.78c0.05,10.65,0.58,21.35,3.98,31.41c0.31,0.9,0.75,1.76,1.3,3.03 c9.09-26.95,32.88-51.94,42.93-54.5c-21.84,25.4-35.36,56.29-41.71,87.8c2.42-2.14,4.43-4.56,5.44-7.29 c2.15-5.86,3.96-11.84,5.57-17.86c0.79-2.95,2.19-4.48,5.45-5.26c22.08-5.28,31.71-11.43,44.3-22.58 c30.47-27,36.56-61.14,32.42-99.22C432.44,228.34,431.44,229.97,430.4,231.57"/>
      </defs>
      <linearGradient id="SVGID_00000010274813547119196810000010140413782038011580_" gradientUnits="userSpaceOnUse" x1="365.8984" y1="301.7871" x2="429.0507" y2="301.7871">
        <stop offset="0.0159" style="stop-color:#8ABD24"/>
        <stop offset="1" style="stop-color:#5C9424"/>
      </linearGradient>
      <path d="M430.4,231.57c-8.2,12.69-21.64,18.42-35.51,23.65c-12.39,4.67-21.77,6.44-33.61,12.15 c-17.39,8.39-26.93,24.41-26.85,42.78c0.05,10.65,0.58,21.35,3.98,31.41c0.31,0.9,0.75,1.76,1.3,3.03 c9.09-26.95,32.88-51.94,42.93-54.5c-21.84,25.4-35.36,56.29-41.71,87.8c2.42-2.14,4.43-4.56,5.44-7.29 c2.15-5.86,3.96-11.84,5.57-17.86c0.79-2.95,2.19-4.48,5.45-5.26c22.08-5.28,31.71-11.43,44.3-22.58 c30.47-27,36.56-61.14,32.42-99.22C432.44,228.34,431.44,229.97,430.4,231.57" style="overflow: visible; fill: url('#SVGID_00000010274813547119196810000010140413782038011580_');"/>
      <clipPath id="SVGID_00000109742260136800498660000015206198026481508744_">
        <path d="M430.4,231.57c-8.2,12.69-21.64,18.42-35.51,23.65c-12.39,4.67-21.77,6.44-33.61,12.15 c-17.39,8.39-26.93,24.41-26.85,42.78c0.05,10.65,0.58,21.35,3.98,31.41c0.31,0.9,0.75,1.76,1.3,3.03 c9.09-26.95,32.88-51.94,42.93-54.5c-21.84,25.4-35.36,56.29-41.71,87.8c2.42-2.14,4.43-4.56,5.44-7.29 c2.15-5.86,3.96-11.84,5.57-17.86c0.79-2.95,2.19-4.48,5.45-5.26c22.08-5.28,31.71-11.43,44.3-22.58 c30.47-27,36.56-61.14,32.42-99.22C432.44,228.34,431.44,229.97,430.4,231.57" style="overflow: visible;"/>
      </clipPath>
      <linearGradient id="SVGID_00000044881364087989374180000004770342674354827913_" gradientUnits="userSpaceOnUse" x1="1.5851" y1="792.7805" x2="2.9555" y2="792.7805" gradientTransform="matrix(52.9813 -69.4485 69.4485 52.9813 -54777.8555 -41562.1367)">
        <stop offset="0.0159" style="stop-color:#8ABD24"/>
        <stop offset="1" style="stop-color:#5C9424"/>
      </linearGradient>
      <polygon style="clip-path:url(#SVGID_00000109742260136800498660000015206198026481508744_);fill:url(#SVGID_00000044881364087989374180000004770342674354827913_);" points="&#10;&#9;&#9;&#9;399.32,425.73 516.55,281.68 371.36,177.85 254.14,321.9 &#9;&#9;"/>
    </g>
    <path class="st1" d="M252.23,246.95c0.58,1.4,2.02,2.11,3.23,1.58c1.21-0.53,1.72-2.1,1.14-3.5c-0.58-1.4-2.02-2.12-3.23-1.59 C252.17,243.97,251.65,245.54,252.23,246.95z" style="fill: none; stroke: rgb(0, 176, 173); stroke-miterlimit: 10; stroke-width: 2.5628px;"/>
    <path class="st1" d="M265.52,267.74c1.28,0.76,2.85,0.43,3.51-0.75c0.66-1.17,0.15-2.74-1.13-3.51c-1.28-0.76-2.85-0.43-3.51,0.75 C263.74,265.41,264.24,266.98,265.52,267.74z" style="fill: none; stroke: rgb(0, 176, 173); stroke-miterlimit: 10; stroke-width: 2.5628px;"/>
    <path class="st1" d="M283.69,282.38c1.46,0.26,2.82-0.61,3.04-1.95c0.22-1.34-0.78-2.63-2.23-2.89c-1.46-0.26-2.82,0.61-3.04,1.95 C281.24,280.82,282.24,282.12,283.69,282.38z" style="fill: none; stroke: rgb(0, 176, 173); stroke-miterlimit: 10; stroke-width: 2.5628px;"/>
    <polyline class="st2" points="325.84,303.8 326.15,291.99 318.19,273.34 300.36,263.41 281.92,260.42 265.61,255.19 256.9,247.16 &#9;&#10;&#9;&#9;" style="fill: none; stroke: rgb(0, 176, 173); stroke-miterlimit: 10; stroke-width: 3.5699px;"/>
    <polyline class="st2" points="322.47,304.65 316.61,297.76 305.12,288.16 295.79,281.94 287.51,279.96 &#9;" style="fill: none; stroke: rgb(0, 176, 173); stroke-miterlimit: 10; stroke-width: 3.5699px;"/>
    <polyline class="st2" points="326.99,331.77 320.94,315.52 311.11,305.19 297.31,291.22 285.93,282.5 &#9;" style="fill: none; stroke: rgb(0, 176, 173); stroke-miterlimit: 10; stroke-width: 3.5699px;"/>
    <polyline class="st2" points="309.46,316.31 289.19,309.18 269.53,293.51 258.83,271.86 254.87,256.18 253.79,249.03 &#9;" style="fill: none; stroke: rgb(0, 176, 173); stroke-miterlimit: 10; stroke-width: 3.5699px;"/>
    <path class="st3" d="M321.96,304.91c-0.62,1.57,0.11,3.36,1.63,4.01c1.52,0.64,3.26-0.11,3.88-1.68c0.62-1.57-0.11-3.36-1.63-4.01 C324.32,302.58,322.59,303.34,321.96,304.91z" style="fill: none; stroke: rgb(0, 176, 173); stroke-miterlimit: 10; stroke-width: 2.5898px;"/>
    <path class="st3" d="M310.05,316.25c-0.62,1.57,0.11,3.36,1.63,4.01c1.52,0.64,3.26-0.11,3.88-1.68c0.62-1.57-0.11-3.36-1.63-4.01 C312.41,313.92,310.67,314.68,310.05,316.25z" style="fill: none; stroke: rgb(0, 176, 173); stroke-miterlimit: 10; stroke-width: 2.5898px;"/>
    <path class="st3" d="M296.17,302.77c-0.62,1.57,0.11,3.36,1.63,4.01c1.52,0.64,3.26-0.11,3.88-1.68c0.62-1.57-0.11-3.36-1.63-4.01 C298.52,300.45,296.79,301.2,296.17,302.77z" style="fill: none; stroke: rgb(0, 176, 173); stroke-miterlimit: 10; stroke-width: 2.5898px;"/>
    <path class="st3" d="M324.47,332.62c-0.62,1.57,0.11,3.36,1.63,4.01c1.52,0.64,3.26-0.11,3.88-1.68c0.62-1.57-0.11-3.36-1.63-4.01 C326.83,330.29,325.09,331.05,324.47,332.62z" style="fill: none; stroke: rgb(0, 176, 173); stroke-miterlimit: 10; stroke-width: 2.5898px;"/>
    <path class="st3" d="M312.52,285.74c-0.62,1.57,0.11,3.36,1.63,4.01c1.52,0.64,3.26-0.11,3.88-1.68c0.62-1.57-0.11-3.36-1.63-4.01 C314.88,283.42,313.15,284.17,312.52,285.74z" style="fill: none; stroke: rgb(0, 176, 173); stroke-miterlimit: 10; stroke-width: 2.5898px;"/>
    <polyline class="st2" points="269.46,265.64 280.66,268.97 297.09,271.45 310.62,279.55 314.15,284.06 &#9;" style="fill: none; stroke: rgb(0, 176, 173); stroke-miterlimit: 10; stroke-width: 3.5699px;"/>
    <polyline class="st2" points="296.48,302.18 289.86,299.03 276.99,287.53 267.01,273.35 266.7,268.23 &#9;" style="fill: none; stroke: rgb(0, 176, 173); stroke-miterlimit: 10; stroke-width: 3.5699px;"/>
    <path class="st4" d="M293.58,321.96c2.86,0,5.56,0.66,8.07,1.99c2.52,1.32,4.42,3.16,5.71,5.52c1.28,2.36,1.93,4.97,1.93,7.83 c0,5.87-1.64,11.74-4.92,17.62c-3.28,5.87-7.6,10.5-12.97,13.89c-5.37,3.39-10.76,5.08-16.2,5.08c-4.93,0-8.75-1.47-11.45-4.4 c-2.7-2.94-4.05-6.52-4.05-10.77c0-5.04,1-9.76,3.02-14.16c2.01-4.4,4.57-8.25,7.67-11.53c3.1-3.28,6.66-5.94,10.68-7.99 C285.1,322.98,289.27,321.96,293.58,321.96 M291.35,324.84c-1.92,0-3.52,0.56-4.78,1.69c-2.54,2.28-5.4,7.62-8.59,16.01 c-3.19,8.39-4.78,15.96-4.78,22.7c0,1.67,0.51,3.05,1.52,4.13c1.01,1.09,2.21,1.63,3.59,1.63c1.41,0,2.66-0.44,3.75-1.31 c1.59-1.3,3.55-4.23,5.87-8.78c2.32-4.55,4.22-9.57,5.71-15.06c1.49-5.49,2.23-10.52,2.23-15.09c0-1.88-0.45-3.34-1.36-4.38 C293.6,325.36,292.55,324.84,291.35,324.84" style="fill: rgb(138, 189, 36);"/>
    <path class="st4" d="M182.85,351.97c-0.33,2.36-0.49,4.3-0.49,5.82c0,2.72,0.79,4.89,2.37,6.52c1.58,1.63,3.69,2.45,6.33,2.45 c2.54,0,5.08-0.62,7.64-1.85c2.56-1.23,5.52-3.39,8.89-6.47l1.63,1.47c-4.17,5.04-8.23,8.63-12.18,10.76 c-3.95,2.14-8.32,3.21-13.1,3.21c-6.05,0-10.24-1.45-12.56-4.35c-2.32-2.9-3.48-6.25-3.48-10.06c0-5.94,1.73-11.89,5.19-17.83 c3.46-5.94,8.17-10.71,14.14-14.3c5.96-3.59,11.95-5.38,17.97-5.38c3.04,0,5.35,0.73,6.91,2.18c1.56,1.45,2.34,3.28,2.34,5.49 c0,2.65-0.76,5.22-2.28,7.72c-2.1,3.41-4.75,6.15-7.94,8.24c-3.19,2.08-6.76,3.67-10.71,4.76 C190.86,351.07,187.31,351.61,182.85,351.97 M195.23,335.75c2.09-4.36,3.76-7.38,9.96-9.11c-1.58-2.32-5.9-2.06-9.6,0.32 c-3.98,2.56-7.44,7.26-9.09,10.9c-0.76,1.68-2.75,7.48-3.17,12.3c0.66-1.39,6.43-4.47,9.22-5.29c3.01-0.88,7.84-3.3,10.55-6.51 c2.16-2.56,3.56-5.01,3.01-9.35c-0.08-0.67,0.15,0.55-0.08-0.67C202.97,329.25,199.18,331.8,195.23,335.75" style="fill: rgb(138, 189, 36);"/>
    <path class="st4" d="M243.04,325.6c-1.26,0.61-2.49,1.46-3.68,2.56c-3.55,3.26-6.27,7.39-8.16,12.4c-1.89,5-2.83,9.75-2.83,14.25 c0,3.55,0.96,6.39,2.88,8.51c1.92,2.12,4.2,3.18,6.85,3.18c2.32,0,4.83-0.6,7.53-1.79c2.7-1.2,5.26-3.01,7.69-5.44l1.63,1.47 c-3.52,4.21-6.98,7.29-10.38,9.24c-4.53,2.61-9.22,3.91-14.08,3.91c-3.26,0-6.15-0.7-8.67-2.09c-2.52-1.4-4.38-3.35-5.57-5.87 c-1.2-2.52-1.79-5.1-1.79-7.75c0-5.94,1.61-11.79,4.84-17.53c3.23-5.75,7.48-10.29,12.78-13.65c5.29-3.35,10.49-5.03,15.6-5.03 c1.18,0,2.27,0.07,3.27,0.22l-0.04-0.01c2.22,0.36,4.33,0.86,5.65,1.53c2.15,1.11,4.09,3.83,2.79,6.38 c-1.51,2.94-4.67,4.04-7.12,2.78c-3.43-1.76-3.38-5.7-6.42-7.26c0,0-0.44-0.23-0.66-0.31c-0.19-0.07-0.46-0.08-0.66-0.07 c-0.14,0-0.37,0.03-0.59,0.09c-0.22,0.05-0.66,0.21-0.66,0.21L243.04,325.6z" style="fill: rgb(138, 189, 36);"/>
    <path class="st5" d="M434.66,455.97c0,5.39-4.37,9.77-9.77,9.77H259.12v-87.9h165.77c5.39,0,9.77,4.37,9.77,9.77V455.97z" style="fill: rgb(0, 176, 173);"/>
    <path class="st6" d="M283.16,391.06c0,3.26-2.64,5.9-5.9,5.9c-3.26,0-5.9-2.64-5.9-5.9c0-3.26,2.64-5.9,5.9-5.9 C280.52,385.16,283.16,387.8,283.16,391.06" style="fill: rgb(255, 255, 255);"/>
    <rect x="272.87" y="405.69" class="st6" width="8.77" height="50.93" style="fill: rgb(255, 255, 255);"/>
    <path class="st6" d="M307.49,404.91c3.9,0,6.96,0.47,9.17,1.41c2.21,0.94,3.87,2.07,4.98,3.37c1.11,1.3,1.91,2.69,2.23,4.01 c0.33,1.33,0.42,2.06,0.42,3.01l0.02,0.98v38.93h-8.77v-37.46l0.03-0.87c0-0.58,0.05-1.31-0.11-1.99 c-0.16-0.68-0.46-1.25-1.04-1.87c-0.59-0.62-1.41-1.14-2.49-1.56c-1.07-0.42-2.49-0.63-4.24-0.63h-0.26 c-1.76,0-3.17,0.21-4.24,0.63c-1.07,0.42-1.9,0.94-2.49,1.56c-0.59,0.62-0.88,1.19-1.04,1.87c-0.16,0.68-0.11,1.41-0.11,1.99 l0.03,0.87v37.46h-8.77v-38.93l0.02-0.98c0-0.95,0.1-1.68,0.42-3.01c0.32-1.32,1.12-2.71,2.23-4.01c1.11-1.3,2.76-2.42,4.98-3.37 c2.21-0.94,5.27-1.41,9.17-1.41H307.49z" style="fill: rgb(255, 255, 255);"/>
    <path class="st6" d="M351.69,449.3v7.32c-3.9,0-6.96-0.47-9.17-1.41c-2.21-0.94-3.89-2.06-5.02-3.37c-1.14-1.3-2.06-2.58-2.32-3.92 c-0.26-1.33-0.33-2.39-0.33-3.11l-0.04-1.76v-29.47h-6.03v-8.67h6.03v-12.97h8.77v12.97h9.58v8.66h-9.58v28.71v0.88 c0,0.58-0.02,1.27,0.14,1.96c0.16,0.68,0.38,1.3,0.96,1.95c0.58,0.65,1.41,1.19,2.49,1.61c1.07,0.42,2.49,0.63,4.24,0.63H351.69z" style="fill: rgb(255, 255, 255);"/>
    <path class="st6" d="M385.27,457.31c-8.67,0-10,0-11.47,0c-2.21,0-4.13-0.18-5.76-0.54c-1.63-0.36-3.04-0.81-4.24-1.36 c-1.2-0.55-2.2-1.18-2.98-1.9c-0.78-0.72-1.43-1.43-1.95-2.15c-1.17-1.69-1.72-3.64-1.66-5.85v-2.24v-4.39v-19.71v-0.1v-2.44 c0-0.78,0.13-1.82,0.39-3.12c0.26-1.3,0.94-2.6,2.05-3.9c1.11-1.3,2.76-2.42,4.97-3.36c2.21-0.94,5.27-1.42,9.17-1.42 c3.9,0,6.96,0.47,9.17,1.42c2.21,0.94,3.87,2.06,4.98,3.36c1.1,1.3,1.79,2.62,2.05,3.95c0.26,1.33,0.39,2.36,0.39,3.07v2.44v0.1 v2.15c0,1.11-0.21,2.34-0.63,3.71c-0.42,1.37-1.41,2.83-2.98,4.39c-0.72,0.78-1.53,1.37-2.44,1.76c-0.91,0.39-1.72,0.68-2.44,0.88 c-0.85,0.26-1.72,0.39-2.63,0.39h-7.42c-1.69,0-3.19,0.62-4.49,1.85c-1.3,1.24-1.95,2.76-1.95,4.59v4.39c0,1.56,0.29,2.8,0.88,3.71 c0.26,0.46,0.55,0.85,0.88,1.17c0.32,0.33,0.81,0.62,1.46,0.88c0.52,0.26,1.19,0.49,2,0.68c0.81,0.19,1.87,0.29,3.17,0.29 c1.69,0,2.96-0.01,11.44-0.01L385.27,457.31z" style="fill: rgb(255, 255, 255);"/>
    <path class="st5" d="M382.1,419.07v-0.88c0-0.58-0.08-1.22-0.24-1.9c-0.08-0.34-0.03-0.35-0.22-0.67 c-3.12,0.52-7.02,1.79-10.02,3.45c0.42-0.83,2.19-2.47,4.21-3.64c1.43-0.82,2.99-1.37,4.4-1.75c-0.41-0.26-1.44-0.68-1.98-0.9 c-1.07-0.42-2.49-0.63-4.24-0.63c-1.82,0-3.3,0.21-4.44,0.63c-1.14,0.42-2.02,0.93-2.63,1.51c-0.62,0.58-1.03,1.22-1.22,1.9 c-0.2,0.68-0.29,1.28-0.29,1.8v1.07v0.1v0.78v8.2c0.13-0.58,0.42-1.06,0.88-1.41c0.45-0.36,0.97-0.63,1.56-0.83 c0.59-0.2,1.17-0.33,1.76-0.39c0.58-0.06,1.04-0.1,1.37-0.1h5.56c1.5,0,2.8-0.54,3.9-1.61c1.11-1.07,1.66-2.36,1.66-3.85v-0.78 V419.07z" style="fill: rgb(0, 176, 173);"/>
    <rect x="397.63" y="385.88" class="st6" width="8.77" height="70.73" style="fill: rgb(255, 255, 255);"/>
    <rect x="414.38" y="385.88" class="st6" width="8.77" height="70.73" style="fill: rgb(255, 255, 255);"/>
    <line class="st7" x1="277.26" y1="456.81" x2="277.26" y2="394.2" style="fill: none; stroke: rgb(0, 176, 173); stroke-miterlimit: 10; stroke-width: 2.0911px;"/>
    <path class="st7" d="M277.26,388.33c1.62,0,2.93,1.31,2.93,2.94c0,1.62-1.31,2.93-2.93,2.93c-1.62,0-2.93-1.31-2.93-2.93 C274.32,389.65,275.64,388.33,277.26,388.33z" style="fill: none; stroke: rgb(0, 176, 173); stroke-miterlimit: 10; stroke-width: 2.0911px;"/>
    <line class="st7" x1="402.01" y1="385.54" x2="402.01" y2="448.15" style="fill: none; stroke: rgb(0, 176, 173); stroke-miterlimit: 10; stroke-width: 2.0911px;"/>
    <path class="st7" d="M402.01,454.02c-1.62,0-2.94-1.31-2.94-2.93c0-1.62,1.31-2.93,2.94-2.93c1.62,0,2.93,1.31,2.93,2.93 C404.95,452.71,403.63,454.02,402.01,454.02z" style="fill: none; stroke: rgb(0, 176, 173); stroke-miterlimit: 10; stroke-width: 2.0911px;"/>
    <path class="st7" d="M319.93,454.05c-1.62,0-2.93-1.31-2.93-2.93c0-1.62,1.31-2.93,2.93-2.93c1.62,0,2.93,1.31,2.93,2.93 C322.87,452.73,321.55,454.05,319.93,454.05z" style="fill: none; stroke: rgb(0, 176, 173); stroke-miterlimit: 10; stroke-width: 2.0911px;"/>
    <path class="st7" d="M295.22,448.36v-30.72c0.06-5.64,4.92-8.98,11.11-8.98h2.55c6.19,0,11.05,3.34,11.05,9.03v30.72" style="fill: none; stroke: rgb(0, 176, 173); stroke-miterlimit: 10; stroke-width: 2.0911px;"/>
    <path class="st7" d="M295.18,454.05c1.62,0,2.93-1.31,2.93-2.93c0-1.62-1.31-2.93-2.93-2.93c-1.62,0-2.93,1.31-2.93,2.93 C292.25,452.73,293.56,454.05,295.18,454.05z" style="fill: none; stroke: rgb(0, 176, 173); stroke-miterlimit: 10; stroke-width: 2.0911px;"/>
    <line class="st7" x1="418.76" y1="385.54" x2="418.76" y2="448.15" style="fill: none; stroke: rgb(0, 176, 173); stroke-miterlimit: 10; stroke-width: 2.0911px;"/>
    <path class="st7" d="M418.76,454.02c-1.62,0-2.93-1.31-2.93-2.93c0-1.62,1.31-2.93,2.93-2.93c1.62,0,2.93,1.31,2.93,2.93 C421.7,452.71,420.38,454.02,418.76,454.02z" style="fill: none; stroke: rgb(0, 176, 173); stroke-miterlimit: 10; stroke-width: 2.0911px;"/>
    <line class="st7" x1="328.46" y1="409.35" x2="344.14" y2="409.35" style="fill: none; stroke: rgb(0, 176, 173); stroke-miterlimit: 10; stroke-width: 2.0911px;"/>
    <path class="st7" d="M350.22,409.27c0,1.62-1.31,2.94-2.94,2.94s-2.93-1.31-2.93-2.94c0-1.62,1.31-2.93,2.93-2.93 S350.22,407.65,350.22,409.27z" style="fill: none; stroke: rgb(0, 176, 173); stroke-miterlimit: 10; stroke-width: 2.0911px;"/>
    <path class="st7" d="M342.15,397.78c0,1.62-1.31,2.94-2.93,2.94c-1.62,0-2.94-1.31-2.94-2.94c0-1.62,1.31-2.93,2.94-2.93 C340.84,394.85,342.15,396.16,342.15,397.78z" style="fill: none; stroke: rgb(0, 176, 173); stroke-miterlimit: 10; stroke-width: 2.0911px;"/>
    <path class="st7" d="M339.21,400.26c0,0-0.09,41.75,0,44.2c0.16,4.56,2.99,6.58,6.33,7.88c2.07,0.81,4.75,0.95,6.84,0.86" style="fill: none; stroke: rgb(0, 176, 173); stroke-miterlimit: 10; stroke-width: 2.0911px;"/>
  </g>
</svg>