<svg width="22" height="21" viewBox="0 0 22 21" fill="none" xmlns="http://www.w3.org/2000/svg">
<path d="M6.76923 15.4737C6.76923 15.4737 14.6667 16.5789 18.0513 19.8947H19.1795C19.8026 19.8947 20.3077 19.3999 20.3077 18.7895V12.0883C21.2809 11.8429 22 10.9774 22 9.94737C22 8.91737 21.2809 8.05184 20.3077 7.80647V1.10526C20.3077 0.494848 19.8026 0 19.1795 0H18.0513C14.6667 3.31579 6.76923 4.42105 6.76923 4.42105H2.25641C1.01023 4.42105 0 5.41074 0 6.63158V13.2632C0 14.484 1.01023 15.4737 2.25641 15.4737H3.38462L4.51282 21H6.76923V15.4737ZM9.02564 6.25711C9.79654 6.09508 10.749 5.87108 11.7777 5.57465C13.671 5.0291 16.0769 4.16974 18.0513 2.84559V17.0491C16.0769 15.725 13.671 14.8657 11.7777 14.3201C10.749 14.0237 9.79654 13.7997 9.02564 13.6376V6.25711ZM2.25641 6.63158H6.76923V13.2632H2.25641V6.63158Z" fill="#238878"/>
</svg>
