<svg width="20" height="22" viewBox="0 0 20 22" fill="none" xmlns="http://www.w3.org/2000/svg">
<path d="M18.4836 9.77007L19.7452 10.5251C19.9936 10.6738 20.0742 10.9953 19.9252 11.2432C19.8808 11.3167 19.819 11.3784 19.7452 11.4227L9.99997 17.2543L0.254854 11.4227C0.0063404 11.2739 -0.0742515 10.9525 0.074863 10.7046C0.119173 10.6309 0.180989 10.5693 0.254854 10.5251L1.51646 9.77007L9.99997 14.8468L18.4836 9.77007ZM18.4836 14.6898L19.7452 15.4448C19.9936 15.5935 20.0742 15.915 19.9252 16.1628C19.8808 16.2364 19.819 16.2981 19.7452 16.3424L10.5399 21.8508C10.2076 22.0497 9.79238 22.0497 9.46 21.8508L0.254854 16.3424C0.0063404 16.1936 -0.0742515 15.8722 0.074863 15.6243C0.119173 15.5506 0.180989 15.4889 0.254854 15.4448L1.51646 14.6898L9.99997 19.7665L18.4836 14.6898ZM10.5399 0.149169L19.7452 5.65771C19.9936 5.80642 20.0742 6.12791 19.9252 6.37577C19.8808 6.44944 19.819 6.51109 19.7452 6.55528L9.99997 12.3869L0.254854 6.55528C0.0063404 6.40657 -0.0742515 6.08509 0.074863 5.83723C0.119173 5.76356 0.180989 5.70191 0.254854 5.65771L9.46 0.149169C9.79238 -0.0497229 10.2076 -0.0497229 10.5399 0.149169Z" fill="#238878"/>
</svg>
