<svg width="41" height="37" viewBox="0 0 41 37" fill="none" xmlns="http://www.w3.org/2000/svg">
<circle cx="22.5" cy="18.5" r="18.5" fill="#EEFFF3"/>
<path d="M25.6836 16.6118L27.4367 17.6637C27.7819 17.8709 27.8939 18.3188 27.6868 18.6641C27.6251 18.7666 27.5392 18.8525 27.4367 18.9142L13.8953 27.0389L0.354129 18.9142C0.00881021 18.707 -0.103175 18.2591 0.104025 17.9138C0.165596 17.8111 0.251491 17.7252 0.354129 17.6637L2.10718 16.6118L13.8953 23.6847L25.6836 16.6118ZM25.6836 23.4659L27.4367 24.5178C27.7819 24.7251 27.8939 25.1729 27.6868 25.5182C27.6251 25.6208 27.5392 25.7067 27.4367 25.7684L14.6456 33.4428C14.1838 33.7199 13.6069 33.7199 13.145 33.4428L0.354129 25.7684C0.00881021 25.5611 -0.103175 25.1133 0.104025 24.7679C0.165596 24.6653 0.251491 24.5794 0.354129 24.5178L2.10718 23.4659L13.8953 30.5389L25.6836 23.4659ZM14.6456 3.20782L27.4367 10.8824C27.7819 11.0896 27.8939 11.5375 27.6868 11.8828C27.6251 11.9854 27.5392 12.0713 27.4367 12.1329L13.8953 20.2576L0.354129 12.1329C0.00881021 11.9257 -0.103175 11.4778 0.104025 11.1325C0.165596 11.0299 0.251491 10.944 0.354129 10.8824L13.145 3.20782C13.6069 2.93073 14.1838 2.93073 14.6456 3.20782Z" fill="#238878"/>
</svg>
