<svg width="161" height="43" viewBox="0 0 161 43" fill="none" xmlns="http://www.w3.org/2000/svg">
<path d="M51.08 32.288C49.8 32.288 48.608 32.056 47.504 31.592C46.416 31.128 45.464 30.48 44.648 29.648C43.832 28.816 43.192 27.84 42.728 26.72C42.28 25.6 42.056 24.376 42.056 23.048C42.056 21.72 42.28 20.496 42.728 19.376C43.176 18.24 43.808 17.264 44.624 16.448C45.44 15.616 46.392 14.976 47.48 14.528C48.584 14.064 49.784 13.832 51.08 13.832C52.376 13.832 53.536 14.048 54.56 14.48C55.6 14.912 56.48 15.488 57.2 16.208C57.92 16.928 58.432 17.728 58.736 18.608L55.448 20.192C55.144 19.328 54.608 18.616 53.84 18.056C53.088 17.48 52.168 17.192 51.08 17.192C50.024 17.192 49.096 17.44 48.296 17.936C47.496 18.432 46.872 19.12 46.424 20C45.992 20.864 45.776 21.88 45.776 23.048C45.776 24.216 45.992 25.24 46.424 26.12C46.872 27 47.496 27.688 48.296 28.184C49.096 28.68 50.024 28.928 51.08 28.928C52.168 28.928 53.088 28.648 53.84 28.088C54.608 27.512 55.144 26.792 55.448 25.928L58.736 27.512C58.432 28.392 57.92 29.192 57.2 29.912C56.48 30.632 55.6 31.208 54.56 31.64C53.536 32.072 52.376 32.288 51.08 32.288ZM67.1287 32.288C65.8327 32.288 64.6487 31.992 63.5767 31.4C62.5207 30.808 61.6727 30 61.0327 28.976C60.4087 27.936 60.0967 26.76 60.0967 25.448C60.0967 24.12 60.4087 22.944 61.0327 21.92C61.6727 20.896 62.5207 20.088 63.5767 19.496C64.6487 18.904 65.8327 18.608 67.1287 18.608C68.4247 18.608 69.6007 18.904 70.6567 19.496C71.7127 20.088 72.5527 20.896 73.1767 21.92C73.8167 22.944 74.1367 24.12 74.1367 25.448C74.1367 26.76 73.8167 27.936 73.1767 28.976C72.5527 30 71.7127 30.808 70.6567 31.4C69.6007 31.992 68.4247 32.288 67.1287 32.288ZM67.1287 29.048C67.7847 29.048 68.3527 28.896 68.8327 28.592C69.3287 28.288 69.7127 27.864 69.9847 27.32C70.2727 26.776 70.4167 26.152 70.4167 25.448C70.4167 24.744 70.2727 24.128 69.9847 23.6C69.7127 23.056 69.3287 22.632 68.8327 22.328C68.3527 22.008 67.7847 21.848 67.1287 21.848C66.4727 21.848 65.8967 22.008 65.4007 22.328C64.9047 22.632 64.5127 23.056 64.2247 23.6C63.9527 24.128 63.8167 24.744 63.8167 25.448C63.8167 26.152 63.9527 26.776 64.2247 27.32C64.5127 27.864 64.9047 28.288 65.4007 28.592C65.8967 28.896 66.4727 29.048 67.1287 29.048ZM76.2575 32V18.896H79.6175V21.488L79.4255 20.912C79.7295 20.128 80.2175 19.552 80.8895 19.184C81.5775 18.8 82.3775 18.608 83.2895 18.608C84.2815 18.608 85.1455 18.816 85.8815 19.232C86.6335 19.648 87.2175 20.232 87.6335 20.984C88.0495 21.72 88.2575 22.584 88.2575 23.576V32H84.6575V24.344C84.6575 23.832 84.5535 23.392 84.3455 23.024C84.1535 22.656 83.8735 22.368 83.5055 22.16C83.1535 21.952 82.7375 21.848 82.2575 21.848C81.7935 21.848 81.3775 21.952 81.0095 22.16C80.6415 22.368 80.3535 22.656 80.1455 23.024C79.9535 23.392 79.8575 23.832 79.8575 24.344V32H76.2575ZM95.7607 32.288C94.3207 32.288 93.0647 31.952 91.9927 31.28C90.9367 30.592 90.2167 29.672 89.8327 28.52L92.4727 27.272C92.8087 27.976 93.2647 28.528 93.8407 28.928C94.4167 29.328 95.0567 29.528 95.7607 29.528C96.2727 29.528 96.6647 29.424 96.9367 29.216C97.2087 29.008 97.3447 28.72 97.3447 28.352C97.3447 28.16 97.2967 28 97.2007 27.872C97.1047 27.728 96.9607 27.6 96.7687 27.488C96.5767 27.376 96.3367 27.28 96.0487 27.2L93.8167 26.576C92.7447 26.272 91.9207 25.784 91.3447 25.112C90.7687 24.424 90.4807 23.616 90.4807 22.688C90.4807 21.872 90.6887 21.16 91.1047 20.552C91.5207 19.944 92.1047 19.472 92.8567 19.136C93.6087 18.784 94.4727 18.608 95.4487 18.608C96.7287 18.608 97.8487 18.912 98.8087 19.52C99.7847 20.112 100.473 20.952 100.873 22.04L98.2087 23.288C98.0167 22.744 97.6647 22.312 97.1527 21.992C96.6567 21.656 96.0887 21.488 95.4487 21.488C94.9847 21.488 94.6167 21.584 94.3447 21.776C94.0887 21.968 93.9607 22.232 93.9607 22.568C93.9607 22.744 94.0087 22.904 94.1047 23.048C94.2007 23.192 94.3527 23.32 94.5607 23.432C94.7847 23.544 95.0567 23.648 95.3767 23.744L97.4647 24.368C98.5527 24.688 99.3847 25.176 99.9607 25.832C100.537 26.472 100.825 27.264 100.825 28.208C100.825 29.024 100.609 29.736 100.177 30.344C99.7607 30.952 99.1767 31.432 98.4247 31.784C97.6727 32.12 96.7847 32.288 95.7607 32.288ZM107.68 32.288C106.624 32.288 105.72 32.064 104.968 31.616C104.232 31.152 103.672 30.512 103.288 29.696C102.904 28.88 102.712 27.928 102.712 26.84V18.896H106.312V26.552C106.312 27.048 106.408 27.488 106.6 27.872C106.808 28.24 107.096 28.528 107.464 28.736C107.832 28.944 108.248 29.048 108.712 29.048C109.192 29.048 109.608 28.944 109.96 28.736C110.328 28.528 110.608 28.24 110.8 27.872C111.008 27.488 111.112 27.048 111.112 26.552V18.896H114.712V32H111.352V29.408L111.544 29.984C111.24 30.768 110.744 31.352 110.056 31.736C109.384 32.104 108.592 32.288 107.68 32.288ZM117.343 32V13.832H120.943V32H117.343ZM129.89 32.144C128.306 32.144 127.074 31.72 126.194 30.872C125.33 30.008 124.898 28.808 124.898 27.272V22.016H122.69V18.896H122.81C123.482 18.896 123.994 18.728 124.346 18.392C124.714 18.056 124.898 17.552 124.898 16.88V15.92H128.498V18.896H131.57V22.016H128.498V27.032C128.498 27.48 128.578 27.856 128.738 28.16C128.898 28.448 129.146 28.664 129.482 28.808C129.818 28.952 130.234 29.024 130.73 29.024C130.842 29.024 130.97 29.016 131.114 29C131.258 28.984 131.41 28.968 131.57 28.952V32C131.33 32.032 131.058 32.064 130.754 32.096C130.45 32.128 130.162 32.144 129.89 32.144ZM139.991 32.288C138.599 32.288 137.391 31.984 136.367 31.376C135.343 30.752 134.551 29.92 133.991 28.88C133.431 27.84 133.151 26.688 133.151 25.424C133.151 24.112 133.439 22.944 134.015 21.92C134.607 20.896 135.399 20.088 136.391 19.496C137.383 18.904 138.503 18.608 139.751 18.608C140.791 18.608 141.711 18.776 142.511 19.112C143.311 19.432 143.983 19.888 144.527 20.48C145.087 21.072 145.511 21.76 145.799 22.544C146.087 23.312 146.231 24.152 146.231 25.064C146.231 25.32 146.215 25.576 146.183 25.832C146.167 26.072 146.127 26.28 146.063 26.456H136.247V23.816H144.023L142.319 25.064C142.479 24.376 142.471 23.768 142.295 23.24C142.119 22.696 141.807 22.272 141.359 21.968C140.927 21.648 140.391 21.488 139.751 21.488C139.127 21.488 138.591 21.64 138.143 21.944C137.695 22.248 137.359 22.696 137.135 23.288C136.911 23.88 136.823 24.6 136.871 25.448C136.807 26.184 136.895 26.832 137.135 27.392C137.375 27.952 137.743 28.392 138.239 28.712C138.735 29.016 139.335 29.168 140.039 29.168C140.679 29.168 141.223 29.04 141.671 28.784C142.135 28.528 142.495 28.176 142.751 27.728L145.631 29.096C145.375 29.736 144.967 30.296 144.407 30.776C143.863 31.256 143.215 31.632 142.463 31.904C141.711 32.16 140.887 32.288 139.991 32.288ZM147.085 32L151.669 25.424L147.061 18.896H151.237L154.693 23.984H152.869L156.325 18.896H160.501L155.893 25.424L160.453 32H156.301L152.917 26.912H154.645L151.261 32H147.085Z" fill="#0C1C19"/>
<path fill-rule="evenodd" clip-rule="evenodd" d="M31.9997 23.104C31.9999 23.0693 32 23.0347 32 23C32 14.1634 24.8366 7 16 7C7.16344 7 0 14.1634 0 23C0 31.8366 7.16344 39 16 39C24.5651 39 31.5582 32.27 31.9799 23.8096C31.6589 28.7593 27.5425 32.6747 22.5116 32.6747C17.2714 32.6747 13.0233 28.4266 13.0233 23.1863C13.0233 17.946 17.2714 13.6979 22.5116 13.6979C27.7245 13.6979 31.9555 17.9016 31.9997 23.104Z" fill="#238878"/>
</svg>
