<svg width="39" height="39" viewBox="0 0 39 39" fill="none" xmlns="http://www.w3.org/2000/svg">
<circle cx="19.1905" cy="19.1905" r="19.1905" fill="#EEFFF3"/>
<path d="M10.6666 35.4545V33.5561C4.85122 32.696 0.380859 27.5243 0.380859 21.2727V12.4091C0.380859 5.55575 5.75345 0 12.3809 0C19.0083 0 24.3809 5.55575 24.3809 12.4091V21.2727C24.3809 27.5243 19.9105 32.696 14.0951 33.5561V35.4545H20.9523V39H3.80943V35.4545H10.6666ZM12.3809 3.54545C7.647 3.54545 3.80943 7.51385 3.80943 12.4091V21.2727C3.80943 26.1679 7.647 30.1364 12.3809 30.1364C17.1147 30.1364 20.9523 26.1679 20.9523 21.2727V12.4091C20.9523 7.51385 17.1147 3.54545 12.3809 3.54545ZM12.3809 14.1818C13.3277 14.1818 14.0951 13.3881 14.0951 12.4091C14.0951 11.43 13.3277 10.6364 12.3809 10.6364C11.4341 10.6364 10.6666 11.43 10.6666 12.4091C10.6666 13.3881 11.4341 14.1818 12.3809 14.1818ZM12.3809 17.7273C9.54046 17.7273 7.238 15.3462 7.238 12.4091C7.238 9.47195 9.54046 7.09091 12.3809 7.09091C15.2213 7.09091 17.5237 9.47195 17.5237 12.4091C17.5237 15.3462 15.2213 17.7273 12.3809 17.7273Z" fill="#238878"/>
</svg>
