<svg width="16" height="20" viewBox="0 0 16 20" fill="none" xmlns="http://www.w3.org/2000/svg">
<path d="M15.4994 19.5316H13.6393V17.6715C13.6393 16.1304 12.3901 14.8812 10.849 14.8812H5.26855C3.72755 14.8812 2.47832 16.1304 2.47832 17.6715V19.5316H0.618164V17.6715C0.618164 15.1032 2.70022 13.0211 5.26855 13.0211H10.849C13.4173 13.0211 15.4994 15.1032 15.4994 17.6715V19.5316ZM8.05879 11.1609C4.97678 11.1609 2.47832 8.66246 2.47832 5.58047C2.47832 2.49846 4.97678 0 8.05879 0C11.1408 0 13.6393 2.49846 13.6393 5.58047C13.6393 8.66246 11.1408 11.1609 8.05879 11.1609ZM8.05879 9.30078C10.1134 9.30078 11.7791 7.63514 11.7791 5.58047C11.7791 3.52579 10.1134 1.86016 8.05879 1.86016C6.00411 1.86016 4.33847 3.52579 4.33847 5.58047C4.33847 7.63514 6.00411 9.30078 8.05879 9.30078Z" fill="#238878"/>
</svg>
