<svg width="53" height="44" viewBox="0 0 53 44" fill="none" xmlns="http://www.w3.org/2000/svg">
<circle cx="33.8095" cy="22.1905" r="19.1905" fill="#EEFFF3"/>
<path d="M24 0L24.002 6.12402C31.2384 7.0273 36.9738 12.7633 37.8762 20H44V24L37.876 24.002C36.9728 31.2378 31.2378 36.9728 24.002 37.876L24 44H20V37.8762C12.7633 36.9738 7.0273 31.2384 6.12402 24.002L0 24V20H6.12378C7.02624 12.7626 12.7626 7.02624 20 6.12378V0H24ZM22 10C15.3726 10 10 15.3726 10 22C10 28.6274 15.3726 34 22 34C28.6274 34 34 28.6274 34 22C34 15.3726 28.6274 10 22 10ZM22 18C24.2092 18 26 19.7908 26 22C26 24.2092 24.2092 26 22 26C19.7908 26 18 24.2092 18 22C18 19.7908 19.7908 18 22 18Z" fill="#238878"/>
</svg>
