<svg width="52" height="39" viewBox="0 0 52 39" fill="none" xmlns="http://www.w3.org/2000/svg">
<circle cx="32.8096" cy="19.1905" r="19.1905" fill="#EEFFF3"/>
<path d="M3.7 3.8889V31.1111H33.3V3.8889H3.7ZM1.85 0H35.15C36.1718 0 37 0.870549 37 1.94445V33.0556C37 34.1295 36.1718 35 35.15 35H1.85C0.828281 35 0 34.1295 0 33.0556V1.94445C0 0.870549 0.828281 0 1.85 0ZM24.05 7.77779L30.525 13.6111L24.05 19.4444V15.5555H16.65V11.6667H24.05V7.77779ZM12.95 27.2222L6.47499 21.3889L12.95 15.5555V19.4444H20.35V23.3333H12.95V27.2222Z" fill="#238878"/>
</svg>
