<svg width="1919" height="785" viewBox="0 0 1919 785" fill="none" xmlns="http://www.w3.org/2000/svg">
<path opacity="0.5" d="M1738.71 147.834C1742.34 148.955 1745.11 151.126 1747.47 153.87C1748.68 155.263 1749.51 156.842 1749.62 158.72C1749.8 161.442 1748.67 163.639 1746.62 165.273C1742.05 168.903 1737.12 170.082 1731.62 167.059C1731.43 167.36 1731.23 167.654 1731.05 167.955C1728.39 172.342 1724.93 175.857 1720.12 177.816C1718.69 178.396 1717.14 178.837 1715.61 178.958C1709.19 179.472 1704.12 175.204 1703.24 168.668C1702.54 163.433 1703.38 158.418 1705.64 153.668C1709.36 145.843 1715.48 140.59 1723.38 137.357C1729.87 134.701 1736.68 133.393 1743.67 133.022C1745.65 132.915 1747.57 133.191 1749.39 134.072C1751.14 134.917 1751.55 136.468 1750.19 137.853C1749.25 138.819 1748.09 139.579 1747.06 140.465C1744.38 142.757 1741.72 145.068 1739.06 147.375C1738.95 147.46 1738.9 147.581 1738.71 147.834ZM1745.57 137.485C1745.23 137.324 1745.14 137.261 1745.06 137.247C1744.79 137.213 1744.53 137.184 1744.26 137.177C1734.43 136.875 1725.63 139.627 1718.04 146.016C1714.69 148.83 1712.16 152.272 1710.46 156.295C1708.92 159.924 1708.36 163.73 1708.93 167.654C1709.57 172.147 1713.34 174.561 1717.6 173.073C1719.14 172.536 1720.62 171.655 1721.93 170.674C1724.03 169.109 1725.6 167.015 1726.86 164.711C1727.52 163.525 1727.96 162.401 1727.5 160.935C1726.97 159.241 1728.02 157.599 1729.59 157.154C1731.21 156.692 1732.86 157.588 1733.46 159.304C1733.62 159.77 1733.63 160.288 1733.77 160.762C1733.9 161.196 1734.02 161.692 1734.31 162.015C1735.86 163.778 1737.78 164.686 1740.17 164.204C1742.49 163.738 1743.66 162.059 1744.39 159.969C1744.8 158.767 1744.58 157.672 1743.79 156.681C1742.37 154.891 1740.59 153.664 1738.31 153.334C1736.63 153.095 1734.94 152.963 1733.25 152.75C1731.29 152.5 1730.52 151.185 1731.18 149.337C1731.87 147.357 1733.17 145.817 1734.65 144.403C1737.42 141.769 1740.67 139.932 1744.17 138.463C1744.63 138.275 1745.02 137.878 1745.57 137.485Z" fill="#32C0AA"/>
</svg>
