<svg width="38" height="38" viewBox="0 0 38 38" fill="none" xmlns="http://www.w3.org/2000/svg">
<circle cx="19" cy="19" r="19" fill="#238878"/>
<path d="M26 22.4378V25.1881C26 25.5964 25.6843 25.9352 25.2771 25.964C24.9369 25.988 24.6593 26 24.4444 26C17.5715 26 12 20.4285 12 13.5556C12 13.3407 12.012 13.0631 12.0361 12.7229C12.0648 12.3157 12.4036 12 12.8119 12H15.5623C15.7619 12 15.9291 12.1512 15.9492 12.3498C15.9672 12.5282 15.9839 12.6713 15.9994 12.7793C16.1567 13.8781 16.4781 14.9239 16.9379 15.8912C17.0117 16.0465 16.9636 16.2323 16.8237 16.3323L15.145 17.5314C16.167 19.9186 18.0814 21.8331 20.4686 22.8551L21.6655 21.1793C21.7667 21.0377 21.9548 20.989 22.1119 21.0636C23.0791 21.523 24.1249 21.844 25.2235 22.001C25.3308 22.0164 25.4731 22.0329 25.6502 22.0508C25.8488 22.0709 26 22.2381 26 22.4378Z" fill="white"/>
</svg>
