<svg width="49" height="39" viewBox="0 0 49 39" fill="none" xmlns="http://www.w3.org/2000/svg">
<circle cx="29.8095" cy="19.1905" r="19.1905" fill="#EEFFF3"/>
<path d="M15.4873 22.2115L12.8144 24.8252C13.4263 25.8317 13.7778 27.0072 13.7778 28.2632C13.7778 31.9837 10.6935 35 6.88889 35C3.08426 35 0 31.9837 0 28.2632C0 24.5426 3.08426 21.5263 6.88889 21.5263C8.15975 21.5263 9.35024 21.8628 10.3723 22.4498L13.0515 19.8296L5.84419 12.7812L8.27977 10.3994L15.4873 17.4477L22.7022 10.3921L25.1377 12.7739L17.9228 19.8296L20.6116 22.459C21.6371 21.8664 22.8336 21.5263 24.1111 21.5263C27.9157 21.5263 31 24.5426 31 28.2632C31 31.9837 27.9157 35 24.1111 35C20.3065 35 17.2222 31.9837 17.2222 28.2632C17.2222 27.0138 17.5699 25.8438 18.176 24.8408L15.4873 22.2115ZM6.88889 31.6316C8.7912 31.6316 10.3333 30.1235 10.3333 28.2632C10.3333 26.4028 8.7912 24.8947 6.88889 24.8947C4.98657 24.8947 3.44444 26.4028 3.44444 28.2632C3.44444 30.1235 4.98657 31.6316 6.88889 31.6316ZM24.1111 31.6316C26.0135 31.6316 27.5556 30.1235 27.5556 28.2632C27.5556 26.4028 26.0135 24.8947 24.1111 24.8947C22.2087 24.8947 20.6667 26.4028 20.6667 28.2632C20.6667 30.1235 22.2087 31.6316 24.1111 31.6316ZM27.5556 19.8421V6.36842H3.44444V19.8421H0V4.68421C0 3.75405 0.771073 3 1.72222 3H29.2778C30.229 3 31 3.75405 31 4.68421V19.8421H27.5556Z" fill="#238878"/>
</svg>
