<svg width="37" height="37" viewBox="0 0 37 37" fill="none" xmlns="http://www.w3.org/2000/svg">
<path d="M2 34.4188V5.75C2 4.75544 2.39509 3.80161 3.09835 3.09835C3.80161 2.39509 4.75544 2 5.75 2H32C32.9946 2 33.9484 2.39509 34.6516 3.09835C35.3549 3.80161 35.75 4.75544 35.75 5.75V24.5C35.75 25.4946 35.3549 26.4484 34.6516 27.1517C33.9484 27.8549 32.9946 28.25 32 28.25H11.3019C10.7398 28.2501 10.185 28.3765 9.67833 28.6199C9.17171 28.8633 8.72629 29.2175 8.375 29.6563L4.00437 35.12C3.85893 35.3023 3.66042 35.4349 3.43632 35.4994C3.21223 35.5639 2.97361 35.5572 2.75349 35.4802C2.53337 35.4032 2.34262 35.2597 2.20763 35.0695C2.07264 34.8794 2.00008 34.652 2 34.4188Z" stroke="#238878" stroke-width="2.25"/>
<path d="M16.0625 15.125H12.3125C11.8152 15.125 11.3383 14.9275 10.9867 14.5758C10.635 14.2242 10.4375 13.7473 10.4375 13.25V11.375C10.4375 10.8777 10.635 10.4008 10.9867 10.0492C11.3383 9.69754 11.8152 9.5 12.3125 9.5H14.1875C14.6848 9.5 15.1617 9.69754 15.5133 10.0492C15.865 10.4008 16.0625 10.8777 16.0625 11.375V15.125ZM16.0625 15.125C16.0625 17 14.1875 18.875 12.3125 20.75M27.3125 15.125H23.5625C23.0652 15.125 22.5883 14.9275 22.2367 14.5758C21.885 14.2242 21.6875 13.7473 21.6875 13.25V11.375C21.6875 10.8777 21.885 10.4008 22.2367 10.0492C22.5883 9.69754 23.0652 9.5 23.5625 9.5H25.4375C25.9348 9.5 26.4117 9.69754 26.7633 10.0492C27.115 10.4008 27.3125 10.8777 27.3125 11.375V15.125ZM27.3125 15.125C27.3125 17 25.4375 18.875 23.5625 20.75" stroke="#238878" stroke-width="2.25" stroke-linecap="round"/>
</svg>
