<svg width="136" height="22" viewBox="0 0 136 22" fill="none" xmlns="http://www.w3.org/2000/svg">
<path d="M11 0L13.4697 7.60081H21.4616L14.996 12.2984L17.4656 19.8992L11 15.2016L4.53436 19.8992L7.00402 12.2984L0.538379 7.60081H8.53035L11 0Z" fill="#D1AE30"/>
<path d="M38.2381 0L40.7077 7.60081H48.6997L42.2341 12.2984L44.7037 19.8992L38.2381 15.2016L31.7724 19.8992L34.2421 12.2984L27.7764 7.60081H35.7684L38.2381 0Z" fill="#D1AE30"/>
<path d="M67.0476 0L69.3997 7.60081H77.0111L70.8533 12.2984L73.2054 19.8992L67.0476 15.2016L60.8899 19.8992L63.2419 12.2984L57.0842 7.60081H64.6956L67.0476 0Z" fill="#D1AE30"/>
<path d="M95.8571 0L98.3268 7.60081H106.319L99.8531 12.2984L102.323 19.8992L95.8571 15.2016L89.3915 19.8992L91.8611 12.2984L85.3955 7.60081H93.3875L95.8571 0Z" fill="#D1AE30"/>
<path d="M124.143 0L126.613 7.60081H134.605L128.139 12.2984L130.609 19.8992L124.143 15.2016L117.677 19.8992L120.147 12.2984L113.681 7.60081H121.673L124.143 0Z" fill="#D1AE30"/>
</svg>
