<svg width="1920" height="921" viewBox="0 0 1920 921" fill="none" xmlns="http://www.w3.org/2000/svg">
<g clip-path="url(#clip0_716_351)">
<rect x="-0.242432" width="1920" height="921" fill="#238878"/>
<circle cx="250.258" cy="28.5" r="307.5" fill="url(#paint0_linear_716_351)"/>
<path d="M1729.41 187.44C1728.29 189.035 1727.28 190.544 1726.19 191.998C1725.43 192.997 1724.65 194.007 1723.73 194.854C1721.73 196.698 1719.16 196.298 1718.15 193.79C1717.37 191.815 1717.14 189.621 1716.68 187.522C1716.62 187.254 1716.61 186.975 1716.57 186.565C1716.16 186.754 1715.83 186.902 1715.5 187.061C1711.61 188.959 1707.7 190.851 1703.41 191.695C1702.04 191.964 1700.56 192.022 1699.18 191.836C1695.98 191.405 1694.2 188.835 1694.92 185.714C1695.23 184.363 1695.71 182.957 1696.49 181.827C1697.89 179.794 1699.36 177.741 1701.16 176.066C1706.97 170.657 1713.59 166.388 1720.98 163.353C1722.37 162.781 1723.87 162.453 1725.34 162.088C1726.16 161.881 1726.97 162.026 1727.63 162.657C1727.78 162.801 1728 162.905 1728.21 162.963C1730.3 163.552 1732.02 164.751 1733.31 166.398C1735.35 168.989 1737.4 171.601 1739.09 174.409C1741.33 178.13 1742.16 182.268 1741.58 186.609C1741.5 187.226 1741.36 187.846 1741.15 188.435C1740.37 190.73 1738.39 191.933 1735.97 191.567C1733.52 191.195 1731.49 190.076 1729.96 188.122C1729.81 187.926 1729.65 187.736 1729.41 187.44ZM1721.86 190.024C1721.94 190.041 1722.01 190.055 1722.08 190.072C1722.3 189.783 1722.55 189.514 1722.75 189.207C1724.25 186.816 1725.74 184.418 1727.23 182.023C1727.92 180.924 1728.82 180.122 1730.22 180.215C1731.66 180.308 1732.46 181.231 1733.03 182.437C1733.39 183.202 1733.71 184.001 1734.19 184.69C1734.56 185.231 1735.16 185.627 1735.66 186.086C1735.76 186.024 1735.86 185.962 1735.96 185.9C1735.96 185.248 1735.99 184.601 1735.96 183.949C1735.82 181.265 1734.83 178.912 1733.15 176.81C1730.39 173.337 1727.45 170.023 1724.09 167.091C1723.55 166.615 1723.2 166.536 1722.57 166.905C1717.03 170.119 1711.83 173.772 1707.16 178.123C1704.89 180.232 1702.82 182.513 1701.2 185.152C1700.89 185.645 1700.65 186.175 1700.29 186.868C1700.9 186.868 1701.31 186.923 1701.69 186.857C1702.69 186.685 1703.7 186.537 1704.66 186.237C1709.01 184.866 1713.28 183.371 1716.92 180.459C1718.74 178.998 1720.99 179.946 1721.47 182.223C1721.59 182.802 1721.63 183.402 1721.65 183.994C1721.69 185.152 1721.67 186.31 1721.71 187.467C1721.73 188.315 1721.81 189.169 1721.86 190.024Z" fill="#32C0AA"/>
<path opacity="0.5" d="M207.466 716.834C211.093 717.955 213.868 720.126 216.232 722.87C217.433 724.263 218.264 725.842 218.381 727.72C218.553 730.442 217.429 732.639 215.376 734.273C210.811 737.903 205.881 739.082 200.376 736.059C200.186 736.36 199.988 736.654 199.809 736.955C197.151 741.342 193.685 744.857 188.879 746.816C187.452 747.396 185.893 747.837 184.366 747.958C177.946 748.472 172.873 744.204 171.998 737.668C171.296 732.433 172.141 727.418 174.4 722.668C178.115 714.843 184.235 709.59 192.133 706.357C198.627 703.701 205.435 702.393 212.426 702.022C214.409 701.915 216.327 702.191 218.15 703.072C219.896 703.917 220.306 705.468 218.952 706.853C218.004 707.819 216.851 708.579 215.815 709.465C213.139 711.757 210.478 714.068 207.814 716.375C207.711 716.46 207.653 716.581 207.466 716.834ZM214.325 706.485C213.985 706.324 213.901 706.261 213.813 706.247C213.549 706.213 213.286 706.184 213.019 706.177C203.191 705.875 194.384 708.627 186.797 715.016C183.451 717.83 180.915 721.272 179.213 725.295C177.679 728.924 177.119 732.73 177.683 736.654C178.327 741.147 182.097 743.561 186.361 742.073C187.898 741.536 189.374 740.655 190.688 739.674C192.788 738.109 194.355 736.015 195.622 733.711C196.273 732.525 196.72 731.401 196.258 729.935C195.728 728.241 196.778 726.599 198.348 726.154C199.97 725.692 201.613 726.588 202.214 728.304C202.375 728.77 202.386 729.288 202.528 729.762C202.656 730.196 202.777 730.692 203.063 731.015C204.618 732.778 206.54 733.686 208.926 733.204C211.251 732.738 212.418 731.059 213.143 728.969C213.56 727.767 213.333 726.672 212.546 725.681C211.126 723.891 209.351 722.664 207.063 722.334C205.387 722.095 203.696 721.963 202.012 721.75C200.043 721.5 199.278 720.185 199.933 718.337C200.632 716.357 201.928 714.817 203.41 713.403C206.174 710.769 209.432 708.932 212.923 707.463C213.392 707.275 213.776 706.878 214.325 706.485Z" fill="#32C0AA"/>
</g>
<defs>
<linearGradient id="paint0_linear_716_351" x1="403.457" y1="-101.554" x2="224.908" y2="336" gradientUnits="userSpaceOnUse">
<stop stop-color="#156256"/>
<stop offset="1" stop-color="#1F7E6F" stop-opacity="0"/>
</linearGradient>
<clipPath id="clip0_716_351">
<rect width="1920" height="921" fill="white"/>
</clipPath>
</defs>
</svg>
