<svg width="1920" height="777" viewBox="0 0 1920 777" fill="none" xmlns="http://www.w3.org/2000/svg">
<g opacity="0.5">
<path d="M153.656 145.442C152.534 147.037 151.523 148.546 150.428 150C149.675 150.999 148.894 152.009 147.974 152.856C145.969 154.7 143.4 154.3 142.396 151.792C141.608 149.817 141.385 147.623 140.922 145.524C140.862 145.256 140.855 144.977 140.81 144.567C140.406 144.756 140.075 144.904 139.747 145.063C135.853 146.961 131.942 148.853 127.65 149.697C126.28 149.966 124.799 150.024 123.418 149.838C120.221 149.407 118.44 146.837 119.158 143.716C119.468 142.365 119.956 140.959 120.734 139.829C122.132 137.796 123.606 135.743 125.405 134.068C131.216 128.659 137.83 124.39 145.22 121.354C146.611 120.783 148.113 120.455 149.581 120.09C150.407 119.883 151.216 120.028 151.875 120.658C152.025 120.803 152.244 120.907 152.45 120.965C154.538 121.554 156.264 122.753 157.557 124.4C159.59 126.991 161.643 129.603 163.334 132.411C165.575 136.132 166.398 140.27 165.823 144.611C165.742 145.228 165.6 145.848 165.397 146.437C164.61 148.732 162.629 149.935 160.21 149.569C157.763 149.197 155.73 148.077 154.2 146.124C154.05 145.927 153.893 145.738 153.656 145.442ZM146.105 148.026C146.179 148.043 146.252 148.057 146.322 148.074C146.545 147.785 146.796 147.516 146.991 147.209C148.49 144.818 149.978 142.42 151.474 140.025C152.161 138.926 153.064 138.124 154.465 138.217C155.898 138.31 156.707 139.233 157.275 140.439C157.634 141.204 157.951 142.003 158.429 142.692C158.805 143.233 159.401 143.629 159.9 144.088C160.001 144.026 160.102 143.964 160.203 143.902C160.203 143.25 160.231 142.603 160.2 141.951C160.064 139.267 159.07 136.914 157.393 134.812C154.629 131.339 151.697 128.025 148.337 125.093C147.793 124.617 147.444 124.538 146.81 124.907C141.277 128.121 136.076 131.774 131.398 136.125C129.132 138.234 127.065 140.515 125.44 143.154C125.137 143.647 124.896 144.177 124.534 144.87C125.14 144.87 125.548 144.925 125.935 144.859C126.929 144.687 127.943 144.539 128.902 144.239C133.249 142.868 137.526 141.373 141.159 138.461C142.982 137 145.234 137.948 145.712 140.225C145.834 140.804 145.868 141.404 145.889 141.996C145.928 143.154 145.914 144.312 145.952 145.469C145.973 146.317 146.05 147.171 146.105 148.026Z" fill="#32C0AA"/>
</g>
</svg>
